<?xml version="1.0" standalone="no"?>
<!DOCTYPE svg PUBLIC "-//W3C//DTD SVG 20010904//EN"
 "http://www.w3.org/TR/2001/REC-SVG-20010904/DTD/svg10.dtd">
<svg version="1.0" xmlns="http://www.w3.org/2000/svg"
 width="400.000000pt" height="400.000000pt" viewBox="0 0 400.000000 400.000000"
 preserveAspectRatio="xMidYMid meet">
<metadata>
Created by potrace 1.14, written by Peter Selinger 2001-2017
</metadata>
<g transform="translate(0.000000,400.000000) scale(0.100000,-0.100000)"
fill="#000000" stroke="none">
<path d="M3323 3922 c-23 -9 -45 -20 -49 -25 -8 -7 -75 -40 -174 -84 -94 -41
-255 -118 -260 -123 -7 -8 -229 -109 -250 -115 -3 0 -61 -28 -130 -62 -69 -34
-148 -71 -175 -81 -28 -11 -72 -32 -98 -46 -26 -15 -47 -23 -47 -19 0 4 -4 3
-8 -2 -4 -6 -26 -19 -49 -29 -24 -11 -43 -22 -43 -26 0 -4 -6 -7 -12 -7 -17
-1 -218 -90 -235 -104 -7 -6 -13 -8 -13 -3 0 5 -4 4 -8 -2 -8 -11 -193 -94
-211 -94 -6 0 -11 -4 -11 -10 0 -5 -4 -10 -9 -10 -5 0 -74 -31 -153 -70 -78
-38 -148 -70 -154 -70 -14 0 -103 -91 -120 -121 -7 -13 -10 -27 -8 -31 3 -4 0
-16 -6 -27 -6 -12 -6 -22 -1 -26 6 -3 9 -13 9 -23 0 -9 12 -44 27 -77 16 -33
29 -65 31 -71 1 -6 42 -91 91 -190 77 -155 124 -256 128 -274 0 -3 38 -81 84
-173 45 -92 84 -176 86 -185 2 -9 4 -18 5 -19 2 -2 4 -7 5 -13 1 -5 3 -11 5
-12 1 -2 3 -22 5 -46 2 -37 -3 -50 -34 -90 -21 -26 -50 -67 -66 -92 -51 -80
-100 -155 -105 -160 -3 -3 -39 -57 -80 -120 -41 -63 -77 -117 -80 -120 -3 -3
-50 -72 -105 -155 -55 -82 -104 -153 -110 -157 -7 -5 -7 -8 0 -8 6 0 6 -3 -1
-8 -6 -4 -46 -61 -90 -127 -43 -66 -82 -122 -86 -123 -5 -2 -8 -10 -8 -18 0
-8 -5 -14 -11 -14 -5 0 -8 -4 -5 -9 4 -5 2 -11 -2 -13 -14 -5 -212 -308 -214
-326 -3 -45 1 -49 42 -46 22 2 63 16 92 31 29 15 55 28 58 28 3 1 27 11 53 23
27 12 50 22 53 22 7 0 119 54 124 60 3 3 55 28 115 55 61 26 153 69 205 94 52
25 101 45 108 44 6 0 12 3 12 8 0 5 3 8 8 7 4 -1 41 14 82 34 41 20 79 36 84
36 5 0 12 4 15 9 7 10 88 49 143 69 20 7 103 46 185 87 81 41 166 83 188 92
22 10 92 42 155 73 63 30 117 56 120 57 3 1 39 17 80 37 41 19 91 41 110 48
65 26 125 62 168 104 68 64 76 86 76 201 l0 100 -70 140 c-39 77 -76 156 -84
175 -7 19 -34 78 -60 130 -26 52 -62 129 -80 170 -17 41 -55 122 -83 180 -28
58 -52 107 -52 110 0 3 -3 10 -7 16 -13 20 3 89 28 124 14 19 64 94 111 165
47 72 103 156 124 188 22 32 39 60 39 62 0 3 8 13 18 23 19 20 86 114 87 122
0 3 21 34 46 70 26 36 64 92 84 125 21 33 42 62 47 63 4 2 8 8 8 12 0 5 20 38
45 73 25 36 45 70 45 76 0 6 5 11 10 11 6 0 10 6 10 14 0 8 4 16 8 18 11 4
172 246 172 258 0 4 4 10 8 12 17 6 112 163 112 184 0 14 -8 24 -22 28 -29 7
-26 8 -75 -12z"/>
</g>
</svg>
