<?xml version="1.0" encoding="UTF-8" standalone="no" ?>
<!DOCTYPE svg PUBLIC "-//W3C//DTD SVG 1.1//EN" "http://www.w3.org/Graphics/SVG/1.1/DTD/svg11.dtd">
<svg xmlns="http://www.w3.org/2000/svg" xmlns:xlink="http://www.w3.org/1999/xlink" version="1.1" width="295" height="45" viewBox="0 0 295 45" xml:space="preserve">
<desc>Created with Fabric.js 4.6.0</desc>
<defs>
</defs>
<g transform="matrix(0.49 0 0 1 213.94 21.42)" id="4MB_Ic0DWMwutpUKT_7-r"  >
<path style="stroke: rgb(0,164,3); stroke-width: 3; stroke-dasharray: none; stroke-linecap: butt; stroke-dashoffset: 0; stroke-linejoin: miter; stroke-miterlimit: 4; fill: none; fill-rule: nonzero; opacity: 1;" vector-effect="non-scaling-stroke"  transform=" translate(0, 0)" d="M -104.5616 0.1316 L 104.56161 -0.13161" stroke-linecap="round" />
</g>
<g transform="matrix(0.49 0 0 1 85.2 21.42)" id="prnz7_1dyba8f9g_NUuj1"  >
<path style="stroke: rgb(0,164,3); stroke-width: 3; stroke-dasharray: none; stroke-linecap: butt; stroke-dashoffset: 0; stroke-linejoin: miter; stroke-miterlimit: 4; fill: rgb(255,255,255); fill-opacity: 0; fill-rule: nonzero; opacity: 1;" vector-effect="non-scaling-stroke"  transform=" translate(0, 0)" d="M -104.5616 0.1316 L 104.56161 -0.13161" stroke-linecap="round" />
</g>
<g transform="matrix(0.36 0 0 0.36 21.15 21.42)" id="Z-n1CRYAT-1luqdZ7p0yG"  >
<path style="stroke: rgb(195,167,19); stroke-width: 0; stroke-dasharray: none; stroke-linecap: butt; stroke-dashoffset: 0; stroke-linejoin: miter; stroke-miterlimit: 4; fill: rgb(0,164,3); fill-rule: nonzero; opacity: 1;" vector-effect="non-scaling-stroke"  transform=" translate(0, 0)" d="M 0 -57.5 C 31.74 -57.5 57.5 -31.74 57.5 0 C 57.5 31.74 31.74 57.5 0 57.5 C -31.74 57.5 -57.5 31.74 -57.5 0 C -57.5 -31.74 -31.74 -57.5 0 -57.5 z" stroke-linecap="round" />
</g>
<g transform="matrix(0.36 0 0 0.36 146.41 21.15)" id="Zjh3xbWBSZoCSeXKvTG4e"  >
<path style="stroke: rgb(195,167,19); stroke-width: 0; stroke-dasharray: none; stroke-linecap: butt; stroke-dashoffset: 0; stroke-linejoin: miter; stroke-miterlimit: 4; fill: rgb(0,164,3); fill-rule: nonzero; opacity: 1;" vector-effect="non-scaling-stroke"  transform=" translate(0, 0)" d="M 0 -57.5 C 31.74 -57.5 57.5 -31.74 57.5 0 C 57.5 31.74 31.74 57.5 0 57.5 C -31.74 57.5 -57.5 31.74 -57.5 0 C -57.5 -31.74 -31.74 -57.5 0 -57.5 z" stroke-linecap="round" />
</g>
<g transform="matrix(0.36 0 0 0.36 271.41 21.15)" id="WROv-lmfHUWlyvUxmOyMT"  >
<path style="stroke: rgb(195,167,19); stroke-width: 0; stroke-dasharray: none; stroke-linecap: butt; stroke-dashoffset: 0; stroke-linejoin: miter; stroke-miterlimit: 4; fill: rgb(0,164,3); fill-rule: nonzero; opacity: 1;" vector-effect="non-scaling-stroke"  transform=" translate(0, 0)" d="M 0 -57.5 C 31.74 -57.5 57.5 -31.74 57.5 0 C 57.5 31.74 31.74 57.5 0 57.5 C -31.74 57.5 -57.5 31.74 -57.5 0 C -57.5 -31.74 -31.74 -57.5 0 -57.5 z" stroke-linecap="round" />
</g>
<g transform="matrix(0.75 0 0 0.7 20.77 21.42)" id="QVC8UlxriEt9Id8lzYVDR"  >
<path style="stroke: rgb(255,255,255); stroke-width: 2; stroke-dasharray: none; stroke-linecap: butt; stroke-dashoffset: 0; stroke-linejoin: miter; stroke-miterlimit: 4; fill: none; fill-rule: nonzero; opacity: 1;" vector-effect="non-scaling-stroke"  transform=" translate(0, 0)" d="M -13.75546 2.18341 L -3.711789999999999 11.353720000000001 L 13.755460000000001 -11.353699999999998" stroke-linecap="round" />
</g>
<g transform="matrix(0.75 0 0 0.7 146.41 21.42)" id="0lBpVQwq5lx5VyNU01Zxz"  >
<path style="stroke: rgb(255,255,255); stroke-width: 2; stroke-dasharray: none; stroke-linecap: butt; stroke-dashoffset: 0; stroke-linejoin: miter; stroke-miterlimit: 4; fill: none; fill-rule: nonzero; opacity: 1;" vector-effect="non-scaling-stroke"  transform=" translate(0, 0)" d="M -13.75546 2.18341 L -3.711789999999999 11.353720000000001 L 13.755460000000001 -11.353699999999998" stroke-linecap="round" />
</g>
<g transform="matrix(0.75 0 0 0.7 271.41 21.42)" id="Ecel8j33KTqF7epbQZuIF"  >
<path style="stroke: rgb(255,255,255); stroke-width: 2; stroke-dasharray: none; stroke-linecap: butt; stroke-dashoffset: 0; stroke-linejoin: miter; stroke-miterlimit: 4; fill: none; fill-rule: nonzero; opacity: 1;" vector-effect="non-scaling-stroke"  transform=" translate(0, 0)" d="M -13.75546 2.18341 L -3.711789999999999 11.353720000000001 L 13.755460000000001 -11.353699999999998" stroke-linecap="round" />
</g>
</svg>